<svg width="24" height="24" viewBox="0 0 24 24" fill="none" xmlns="http://www.w3.org/2000/svg">
<path d="M23.1938 6.45925C23.1364 6.32275 23.0399 6.20629 22.9164 6.12454C22.793 6.04279 22.6481 5.99942 22.5 5.99988H19.65C19.308 5.40318 18.8332 4.89321 18.2625 4.50947C17.6917 4.12572 17.0403 3.8785 16.3586 3.78695C15.677 3.6954 14.9834 3.76198 14.3316 3.98152C13.6798 4.20107 13.0873 4.56769 12.6 5.053C12.1733 5.46904 11.8341 5.96616 11.6023 6.51515C11.3704 7.06415 11.2507 7.65394 11.25 8.24988V8.82175C7.43438 7.828 4.31251 4.753 4.28438 4.7155C4.18632 4.61903 4.0636 4.55138 3.92967 4.51996C3.79574 4.48854 3.65574 4.49457 3.52501 4.53738C3.39468 4.57885 3.27798 4.65475 3.18722 4.75706C3.09646 4.85937 3.03502 4.98429 3.00938 5.11863C2.19376 9.63738 3.55313 12.6655 4.83751 14.4093C5.48171 15.291 6.26358 16.0634 7.15313 16.6968C5.71876 18.3186 3.50626 19.1624 3.48751 19.1718C3.3817 19.211 3.28612 19.2736 3.20788 19.3549C3.12963 19.4362 3.07074 19.5341 3.0356 19.6414C3.00046 19.7486 2.98996 19.8624 3.0049 19.9742C3.01984 20.0861 3.05983 20.1931 3.12188 20.2874C3.19688 20.3999 3.47813 20.7655 4.16251 21.1124C5.01563 21.5343 6.14063 21.7499 7.50001 21.7499C14.1094 21.7499 19.6406 16.6593 20.2031 10.1061L23.0344 7.28425C23.1361 7.17582 23.2051 7.04079 23.2333 6.89479C23.2615 6.74879 23.2478 6.59779 23.1938 6.45925ZM18.9469 9.24363C18.8162 9.37321 18.7392 9.54729 18.7313 9.73113C18.3469 15.628 13.4156 20.2499 7.50001 20.2499C6.50626 20.2499 5.81251 20.1186 5.32501 19.9593C6.40313 19.378 7.90313 18.3655 8.87813 16.9124C8.93473 16.8244 8.9723 16.7256 8.98845 16.6223C9.0046 16.519 8.99895 16.4134 8.97188 16.3124C8.94459 16.2103 8.89631 16.1151 8.83012 16.0328C8.76394 15.9504 8.68131 15.8828 8.58751 15.8343C8.57813 15.8249 7.19063 15.103 6.00001 13.4624C4.65001 11.6061 4.07813 9.34676 4.30313 6.7405C5.78438 7.95926 8.61563 9.94675 11.8781 10.4905C11.9859 10.5078 12.0961 10.5017 12.2012 10.4726C12.3064 10.4435 12.404 10.392 12.4875 10.3218C12.5691 10.2503 12.6347 10.1625 12.6799 10.0639C12.7252 9.96534 12.7491 9.85833 12.75 9.74988V8.24988C12.7514 7.56175 12.9893 6.89502 13.4239 6.36146C13.8584 5.82791 14.4632 5.45996 15.1368 5.3193C15.8104 5.17865 16.5119 5.27384 17.1236 5.58892C17.7354 5.904 18.2202 6.41981 18.4969 7.04988C18.5567 7.1839 18.654 7.29773 18.7771 7.37759C18.9003 7.45745 19.0439 7.49993 19.1906 7.49988H20.6906L18.9469 9.24363Z" fill="white"/>
</svg>
